<?xml version="1.0" standalone="no"?><!DOCTYPE svg PUBLIC "-//W3C//DTD SVG 1.1//EN" "http://www.w3.org/Graphics/SVG/1.1/DTD/svg11.dtd"><svg t="1684069622526" class="icon" viewBox="0 0 1024 1024" version="1.1" xmlns="http://www.w3.org/2000/svg" p-id="2543" width="32" height="32" xmlns:xlink="http://www.w3.org/1999/xlink"><path d="M758.8352 945.2032H272.5376c-107.264 0-194.2016-86.9376-194.2016-194.2016V264.7552c0-107.264 86.9376-194.2016 194.2016-194.2016h486.2464c107.264 0 194.2016 86.9376 194.2016 194.2016v486.2464c0.0512 107.264-86.8864 194.2016-194.1504 194.2016z" fill="#FC5656" p-id="2544"></path><path d="M520.0896 175.104c-177.7664 0-322.4064 144.64-322.4064 322.4064s144.64 322.4064 322.4064 322.4064h244.0704c9.5744 0 18.3296-5.3248 22.7328-13.824 4.4032-8.4992 3.6864-18.7392-1.8432-26.5728l-53.1456-75.008a25.6512 25.6512 0 0 0-35.6864-6.0928c-11.52 8.192-14.2848 24.1664-6.0928 35.6864l24.5248 34.6112h-194.56c-149.5552 0-271.2064-121.6512-271.2064-271.2064S370.5344 226.304 520.0896 226.304c149.5552 0 271.2576 121.6512 271.2576 271.2064 0 22.5792-2.7648 45.056-8.2944 66.7136-3.4816 13.7216 4.8128 27.648 18.5344 31.0784 13.7216 3.4304 27.648-4.8128 31.0784-18.5344a324.8128 324.8128 0 0 0 9.8304-79.3088c0-177.7152-144.64-322.3552-322.4064-322.3552z" fill="#F7F8F8" p-id="2545"></path><path d="M641.4848 495.6672c14.1312 0 25.6-11.4688 25.6-25.6s-11.4688-25.6-25.6-25.6h-61.696l40.0384-60.5696c7.7824-11.776 4.5568-27.6992-7.2192-35.4816a25.57952 25.57952 0 0 0-35.4816 7.2192l-53.8112 81.3568L452.608 353.2288c-9.1136-10.8032-25.2416-12.1344-36.096-3.0208a25.57952 25.57952 0 0 0-3.0208 36.096l49.152 58.1632H406.016c-14.1312 0-25.6 11.4688-25.6 25.6s11.4688 25.6 25.6 25.6h92.16v49.3056h-92.16c-14.1312 0-25.6 11.4688-25.6 25.6s11.4688 25.6 25.6 25.6h92.16v48.5888c0 14.1312 11.4688 25.6 25.6 25.6s25.6-11.4688 25.6-25.6v-48.5888h92.16c14.1312 0 25.6-11.4688 25.6-25.6s-11.4688-25.6-25.6-25.6h-92.16v-49.3056h92.1088z" fill="#F7F8F8" p-id="2546"></path></svg>