<?xml version="1.0" standalone="no"?><!DOCTYPE svg PUBLIC "-//W3C//DTD SVG 1.1//EN" "http://www.w3.org/Graphics/SVG/1.1/DTD/svg11.dtd"><svg t="1684069748640" class="icon" viewBox="0 0 1024 1024" version="1.1" xmlns="http://www.w3.org/2000/svg" p-id="2760" width="32" height="32" xmlns:xlink="http://www.w3.org/1999/xlink"><path d="M334.464 497.0496h135.68a19.4304 19.4304 0 0 0 0-38.8096h-135.68a19.4304 19.4304 0 0 0 0 38.8096z" fill="#10C55B" p-id="2761"></path><path d="M572.16 382.5664l106.8032-0.1536-109.3888-103.5264v101.12a2.56 2.56 0 0 0 2.5856 2.56z" fill="#10C55B" p-id="2762"></path><path d="M767.4624 662.4512h-52.096v-17.4336h52.0704a14.0032 14.0032 0 0 0 0-27.9552h-41.9584l40.4224-47.2832a13.1072 13.1072 0 0 0 3.3792-9.9584 13.7472 13.7472 0 0 0-5.12-9.5488 14.1312 14.1312 0 0 0-10.0096-3.0464 13.0048 13.0048 0 0 0-9.216 4.8128l-43.52 50.8928-43.52-51.2a12.8 12.8 0 0 0-9.4464-4.8384 14.1312 14.1312 0 0 0-10.24 3.3792 12.8 12.8 0 0 0-4.8384 9.4208 12.0832 12.0832 0 0 0 3.584 10.0864l40.3968 47.2832h-42.0864a13.9776 13.9776 0 0 0 0 27.9296h52.0704v17.4592h-52.0704a13.9776 13.9776 0 0 0 0 27.9296h52.0704v34.3296a14.0032 14.0032 0 0 0 27.9552 0v-34.3296h52.0704a13.7984 13.7984 0 0 0 13.5424-13.9776v-0.5888a13.4656 13.4656 0 0 0-13.44-13.3632z" fill="#10C55B" p-id="2763"></path><path d="M512 0a512 512 0 1 0 512 512A512 512 0 0 0 512 0z m-197.12 788.48a72.4736 72.4736 0 0 1-72.4224-72.5248V307.072a72.5248 72.5248 0 0 1 72.4992-72.5248h252.1344a32.9472 32.9472 0 0 1 22.656 9.088l130.4064 123.52a32.9216 32.9216 0 0 1 10.24 23.936v44.0832a91.648 91.648 0 0 0-34.7392-6.8352 90.9056 90.9056 0 0 0-57.3696 20.864l-132.352 115.2-1.9968 1.8432-1.3056 1.4592a62.208 62.208 0 0 0-11.136 18.2528h-156.9792a19.4048 19.4048 0 0 0 0 38.784h154.3168a61.696 61.696 0 0 0 18.7392 30.72 63.6416 63.6416 0 0 0 25.0624 13.5936 59.8784 59.8784 0 0 0 11.4688 2.0224v79.36a67.7888 67.7888 0 0 0 8.7296 37.9648z m553.5232-151.8848a29.312 29.312 0 0 1-19.5584 8.9856H821.504v108.1856a33.9968 33.9968 0 0 1 0 7.3984 32.1536 32.1536 0 0 1-35.84 28.16h-159.6928a36.1216 36.1216 0 0 1-26.4448-9.0112 35.0208 35.0208 0 0 1-9.3952-26.4448v-108.1856h-25.472a28.672 28.672 0 0 1-7.5264-1.024h-0.4352a29.5936 29.5936 0 0 1-13.952-48.1536l0.4864-0.512 126.976-110.5664 0.5632-0.5376a56.0128 56.0128 0 0 1 35.1744-12.0832 53.12 53.12 0 0 1 35.968 12.8l126.8736 110.464 0.8448 0.8448 0.1792 0.1792a29.6704 29.6704 0 0 1 7.1936 18.944v0.1536a31.8464 31.8464 0 0 1-8.4992 20.352z" fill="#10C55B" p-id="2764"></path></svg>